<svg width="935" height="920" fill="none" xmlns="http://www.w3.org/2000/svg"><path d="M1089.41 592.725c.19-3.37.31-6.76.34-10.168l-1-.011c.01-.847.02-1.696.02-2.545s-.01-1.698-.02-2.545l1-.011c-.03-3.408-.15-6.798-.34-10.168l-1 .056a211.17 211.17 0 00-.34-5.063l.99-.08c-.27-3.396-.61-6.772-1.03-10.124l-1 .124c-.21-1.676-.44-3.347-.68-5.011l.99-.148c-.51-3.369-1.08-6.714-1.74-10.033l-.98.193c-.32-1.661-.67-3.315-1.03-4.962l.98-.215c-.74-3.324-1.54-6.619-2.42-9.885l-.97.26c-.44-1.634-.9-3.26-1.37-4.879l.96-.282c-.96-3.264-2-6.496-3.1-9.696l-.95.326c-.55-1.596-1.12-3.185-1.7-4.765l.93-.348a208.991 208.991 0 00-3.76-9.458l-.92.391c-.66-1.557-1.34-3.106-2.03-4.645l.91-.412c-1.4-3.097-2.87-6.156-4.41-9.176l-.89.454c-.76-1.506-1.55-3.002-2.34-4.488l.88-.474a224.351 224.351 0 00-5.03-8.852l-.86.513c-.86-1.45-1.75-2.889-2.65-4.318l.85-.533a231.53 231.53 0 00-5.62-8.487l-.82.571c-.97-1.387-1.95-2.763-2.94-4.127l.81-.589a237.197 237.197 0 00-6.19-8.084l-.78.626a273.002 273.002 0 00-3.21-3.917l.76-.643a218.39 218.39 0 00-6.72-7.644l-.74.677c-1.14-1.243-2.3-2.473-3.47-3.69l.72-.694a223.927 223.927 0 00-7.22-7.17l-.69.725a213.248 213.248 0 00-3.72-3.446l.68-.74a226.875 226.875 0 00-7.7-6.665l-.64.771a206.61 206.61 0 00-3.94-3.185l.62-.785a223.793 223.793 0 00-8.123-6.127l-.584.812a221.891 221.891 0 00-4.148-2.912l.565-.825a224.467 224.467 0 00-8.525-5.561l-.527.85c-1.434-.89-2.88-1.764-4.336-2.622l.508-.862a223.634 223.634 0 00-8.884-4.969l-.468.884a222.193 222.193 0 00-4.503-2.32l.448-.894a222.878 222.878 0 00-9.201-4.352l-.407.914a221.264 221.264 0 00-4.656-2.01l.386-.923a224.275 224.275 0 00-9.478-3.713l-.343.94a222.79 222.79 0 00-4.773-1.684l.322-.947a223.317 223.317 0 00-9.709-3.056l-.278.961c-1.621-.47-3.249-.922-4.885-1.356l.256-.967a223.718 223.718 0 00-9.893-2.385l-.212.977a230.82 230.82 0 00-4.965-1.019l.19-.981a223.724 223.724 0 00-10.037-1.706l-.145.989a229.71 229.71 0 00-5.014-.678l.123-.992a226.084 226.084 0 00-10.127-1.022l-.078.997a222.549 222.549 0 00-5.064-.339l.055-.999c-3.37-.187-6.76-.301-10.168-.339l-.011 1a239.463 239.463 0 00-5.09 0l-.011-1c-3.408.038-6.798.152-10.168.339l.056.999c-1.694.094-3.382.207-5.065.339l-.078-.997c-3.397.266-6.773.607-10.126 1.022l.122.992c-1.677.208-3.348.434-5.013.678l-.145-.989a223.768 223.768 0 00-10.038 1.706l.19.981c-1.662.322-3.316.662-4.965 1.019l-.212-.977a223.718 223.718 0 00-9.893 2.385l.257.967c-1.636.434-3.265.886-4.886 1.356l-.278-.961a223.317 223.317 0 00-9.709 3.056l.322.947c-1.599.544-3.19 1.105-4.772 1.684l-.344-.94a224.275 224.275 0 00-9.478 3.713l.386.923a223.55 223.55 0 00-4.656 2.01l-.407-.914a222.878 222.878 0 00-9.201 4.352l.448.894c-1.511.757-3.012 1.53-4.503 2.32l-.468-.884a223.634 223.634 0 00-8.884 4.969l.508.862a223.765 223.765 0 00-4.336 2.622l-.527-.85a225.267 225.267 0 00-8.525 5.561l.565.825a221.891 221.891 0 00-4.148 2.912l-.583-.812a224.849 224.849 0 00-8.128 6.127l.62.785a223.58 223.58 0 00-3.94 3.185l-.637-.771a223.79 223.79 0 00-7.694 6.665l.671.74a224.06 224.06 0 00-3.715 3.447l-.689-.726a225.105 225.105 0 00-7.224 7.171l.721.693a219.83 219.83 0 00-3.473 3.69l-.736-.677a222.648 222.648 0 00-6.721 7.644l.766.643a219.15 219.15 0 00-3.214 3.917l-.781-.626a224.81 224.81 0 00-6.185 8.084l.808.589a217.187 217.187 0 00-2.94 4.127l-.821-.571a224.02 224.02 0 00-5.62 8.487l.847.533c-.9 1.429-1.784 2.868-2.652 4.318l-.858-.513a222.989 222.989 0 00-5.025 8.852l.881.474c-.8 1.486-1.582 2.982-2.348 4.488l-.891-.454a221.505 221.505 0 00-4.405 9.176l.911.412a223.448 223.448 0 00-2.035 4.645l-.921-.391a221.44 221.44 0 00-3.76 9.458l.937.348a222.685 222.685 0 00-1.706 4.765l-.946-.326a220.492 220.492 0 00-3.097 9.696l.959.282a221.218 221.218 0 00-1.375 4.879l-.965-.26a219.152 219.152 0 00-2.419 9.885l.976.215a219.136 219.136 0 00-1.033 4.962l-.982-.193a222.472 222.472 0 00-1.731 10.033l.989.148a217.111 217.111 0 00-.687 5.011l-.993-.124a223.05 223.05 0 00-1.037 10.124l.997.08a227.94 227.94 0 00-.344 5.063l-.998-.056c-.191 3.37-.306 6.76-.345 10.168l1 .011a239.61 239.61 0 000 5.09l-1 .011c.039 3.408.154 6.798.345 10.168l.998-.057c.096 1.694.211 3.382.344 5.064l-.997.079c.27 3.397.616 6.773 1.037 10.125l.993-.124c.21 1.676.439 3.347.687 5.011l-.989.147c.502 3.37 1.08 6.715 1.731 10.034l.982-.193c.326 1.661.67 3.315 1.033 4.962l-.976.215a219.483 219.483 0 002.419 9.885l.965-.26c.44 1.634.899 3.26 1.375 4.879l-.959.282c.96 3.264 1.993 6.496 3.097 9.696l.946-.326c.551 1.596 1.12 3.185 1.706 4.765l-.937.348a221.966 221.966 0 003.76 9.458l.921-.391c.661 1.557 1.34 3.106 2.035 4.645l-.911.412c1.4 3.097 2.869 6.156 4.405 9.176l.891-.454a217.071 217.071 0 002.348 4.488l-.881.474a222.989 222.989 0 005.025 8.852l.858-.513c.868 1.45 1.752 2.889 2.652 4.318l-.847.533a223.184 223.184 0 005.62 8.486l.821-.571a218.486 218.486 0 002.94 4.127l-.808.59a224.81 224.81 0 006.185 8.084l.781-.626a219.15 219.15 0 003.214 3.917l-.766.643a222.648 222.648 0 006.721 7.644l.736-.677a219.83 219.83 0 003.473 3.69l-.721.693a226.15 226.15 0 007.224 7.171l.689-.726a219.782 219.782 0 003.715 3.446l-.671.741a223.79 223.79 0 007.694 6.665l.637-.771a223.58 223.58 0 003.94 3.185l-.62.785a224.849 224.849 0 008.128 6.127l.583-.812a226.7 226.7 0 004.148 2.912l-.565.825a225.267 225.267 0 008.525 5.561l.527-.85c1.435.89 2.88 1.764 4.336 2.622l-.508.862a222.358 222.358 0 008.884 4.968l.468-.883c1.491.79 2.992 1.563 4.503 2.32l-.448.894a221.568 221.568 0 009.201 4.351l.407-.913a223.55 223.55 0 004.656 2.01l-.386.923a224.275 224.275 0 009.478 3.713l.344-.94c1.582.579 3.173 1.14 4.772 1.684l-.322.947a223.317 223.317 0 009.709 3.056l.278-.961c1.621.47 3.25.922 4.886 1.356l-.257.967c3.269.867 6.567 1.663 9.893 2.385l.212-.977c1.648.357 3.303.697 4.965 1.018l-.19.982c3.32.642 6.667 1.212 10.037 1.706l.146-.989c1.665.244 3.336.47 5.013.678l-.122.992c3.353.415 6.729.756 10.126 1.022l.078-.997c1.683.132 3.371.245 5.065.339l-.056.999c3.37.187 6.76.301 10.168.339l.011-1a239.61 239.61 0 005.09 0l.011 1c3.408-.038 6.798-.152 10.168-.339l-.056-.999c1.694-.094 3.382-.207 5.065-.339l.078.997c3.398-.266 6.774-.607 10.127-1.022l-.123-.992a229.71 229.71 0 005.014-.678l.145.989a223.724 223.724 0 0010.037-1.706l-.19-.982c1.662-.321 3.317-.661 4.965-1.018l.212.977a223.718 223.718 0 009.893-2.385l-.256-.967c1.636-.434 3.264-.886 4.885-1.356l.278.961a223.317 223.317 0 009.709-3.056l-.322-.947c1.599-.544 3.19-1.105 4.772-1.684l.344.94a224.275 224.275 0 009.478-3.713l-.386-.923a221.264 221.264 0 004.656-2.01l.407.913a221.568 221.568 0 009.201-4.351l-.448-.894c1.511-.757 3.012-1.53 4.503-2.32l.468.883a222.358 222.358 0 008.884-4.968l-.507-.862a223.689 223.689 0 004.335-2.622l.527.85a225.695 225.695 0 008.525-5.561l-.565-.825a226.7 226.7 0 004.148-2.912l.584.812a223.793 223.793 0 008.123-6.127l-.62-.785a206.61 206.61 0 003.94-3.185l.64.771c2.62-2.164 5.18-4.386 7.7-6.665l-.68-.741c1.26-1.134 2.49-2.283 3.72-3.446l.69.726c2.46-2.336 4.87-4.727 7.22-7.171l-.72-.693c1.17-1.217 2.33-2.447 3.47-3.69l.74.677a218.39 218.39 0 006.72-7.644l-.76-.643c1.08-1.293 2.15-2.599 3.21-3.917l.78.626c2.12-2.646 4.18-5.342 6.19-8.084l-.81-.59c.99-1.364 1.97-2.739 2.94-4.127l.82.571c1.93-2.783 3.81-5.613 5.62-8.486l-.85-.533c.9-1.429 1.79-2.868 2.65-4.318l.86.513c1.74-2.909 3.42-5.86 5.03-8.852l-.88-.474c.79-1.486 1.58-2.982 2.34-4.488l.89.454c1.54-3.02 3.01-6.079 4.41-9.176l-.91-.412c.69-1.539 1.37-3.088 2.03-4.645l.92.391a209.46 209.46 0 003.76-9.458l-.93-.348c.58-1.58 1.15-3.169 1.7-4.765l.95.326c1.1-3.2 2.14-6.432 3.1-9.696l-.96-.282c.47-1.619.93-3.245 1.37-4.879l.97.26c.88-3.266 1.68-6.561 2.42-9.885l-.98-.215c.36-1.647.71-3.301 1.03-4.962l.98.193c.66-3.319 1.23-6.664 1.74-10.033l-.99-.148c.24-1.664.47-3.335.68-5.011l1 .124c.42-3.352.76-6.728 1.03-10.124l-.99-.08c.13-1.682.25-3.37.34-5.063l1 .056z" stroke="#D5D5D5" stroke-width="2" stroke-dasharray="5 10"/><path d="M656.373 1262l313.449-893.966" stroke="#D5D5D5" stroke-width="2"/><path d="M324.426 698.204a225.773 225.773 0 00-3.512 9.55l.947.321a227.33 227.33 0 00-1.594 4.833l-.954-.299a224.318 224.318 0 00-2.858 9.762l.966.257a222.825 222.825 0 00-1.259 4.916l-.973-.235a223.836 223.836 0 00-2.187 9.937l.982.19a221.207 221.207 0 00-.917 4.973l-.986-.168a221.37 221.37 0 00-1.5 10.066l.993.122c-.21 1.678-.401 3.355-.573 5.032l-.996-.099a221.397 221.397 0 00-.8 10.138l.999.054a220.226 220.226 0 00-.223 5.06l-1-.03a219.824 219.824 0 00-.097 10.169l1.001-.016c.023 1.687.065 3.373.127 5.055l-1 .039c.124 3.395.327 6.779.607 10.15l.997-.085c.14 1.684.299 3.366.478 5.043l-.996.108c.359 3.376.795 6.737 1.307 10.082l.99-.153c.255 1.668.529 3.332.823 4.991l-.986.176c.59 3.342 1.257 6.665 1.998 9.968l.976-.22c.37 1.647.758 3.288 1.165 4.925l-.972.242a223.4 223.4 0 002.677 9.806l.96-.287a223.29 223.29 0 001.498 4.834l-.952.308a222.627 222.627 0 003.341 9.599l.937-.351a226.39 226.39 0 001.825 4.719l-.929.372a223.593 223.593 0 003.987 9.349l.912-.414a221.802 221.802 0 002.143 4.584l-.903.434a224.527 224.527 0 004.615 9.056l.882-.475a221.9 221.9 0 002.449 4.428l-.871.495a224.87 224.87 0 005.22 8.721l.848-.533a221.097 221.097 0 002.744 4.249l-.835.552a223.865 223.865 0 005.801 8.347l.809-.59a224.714 224.714 0 003.029 4.055l-.796.607a223.003 223.003 0 006.356 7.932l.768-.642a226.098 226.098 0 003.297 3.838l-.753.66a223.847 223.847 0 006.884 7.481l.723-.694a219.27 219.27 0 003.551 3.604l-.707.71a223.877 223.877 0 007.38 6.992l.673-.741a220.695 220.695 0 003.795 3.357l-.656.756a222.601 222.601 0 007.843 6.472l.621-.785a223.975 223.975 0 004.008 3.082l-.603.799a221.847 221.847 0 008.27 5.92l.565-.825c1.394.949 2.8 1.885 4.218 2.805l-.546.838c2.835 1.84 5.72 3.62 8.655 5.34l.508-.862c1.454.851 2.921 1.688 4.399 2.51l-.488.873a224.899 224.899 0 009.006 4.738l.448-.894c1.507.749 3.024 1.483 4.553 2.201l-.427.904a225.48 225.48 0 009.305 4.116l.386-.923c1.559.648 3.129 1.279 4.709 1.895l-.366.931a229.142 229.142 0 009.559 3.479l.324-.946a227.638 227.638 0 004.838 1.58l-.302.953a228.181 228.181 0 009.772 2.834l.259-.966c1.64.436 3.28.853 4.921 1.25l-.238.971c3.313.802 6.629 1.526 9.947 2.172l.194-.981c1.659.324 3.318.627 4.978.912l-.172.985c3.36.576 6.719 1.076 10.077 1.496l.127-.99c1.68.21 3.359.4 5.038.57l-.104.99c3.388.35 6.772.61 10.152.8l.058-.99c1.691.09 3.381.17 5.069.22l-.036 1c3.403.12 6.799.15 10.187.11l-.01-1c1.69-.02 3.378-.06 5.064-.12l.032 1c3.402-.12 6.794-.32 10.173-.59l-.078-.99c1.688-.14 3.373-.3 5.055-.47l.101.99c3.385-.35 6.755-.78 10.109-1.28l-.147-.986c1.674-.251 3.343-.521 5.007-.809l.169.985a225.538 225.538 0 0010-1.967l-.213-.976c1.652-.364 3.3-.747 4.942-1.148l.235.971a226.061 226.061 0 009.844-2.641l-.279-.959c1.624-.475 3.242-.969 4.854-1.481l.301.952a223.92 223.92 0 009.643-3.302l-.344-.937a227.69 227.69 0 004.742-1.805l.365.929a224.912 224.912 0 009.398-3.947l-.407-.912c1.545-.69 3.082-1.398 4.61-2.122l.428.902a225.837 225.837 0 009.11-4.574l-.468-.882a218.133 218.133 0 004.455-2.429l.488.872a225.44 225.44 0 008.78-5.18l-.527-.848c1.437-.892 2.864-1.8 4.28-2.725l.546.836a224.24 224.24 0 008.408-5.762l-.583-.811c1.372-.987 2.734-1.99 4.085-3.009l.602.797a224.42 224.42 0 007.996-6.321l-.638-.768a223.45 223.45 0 003.871-3.28l.655.753a223.827 223.827 0 007.546-6.851l-.689-.723a220.168 220.168 0 003.635-3.536l.706.707a223.788 223.788 0 007.057-7.35l-.738-.674a221.473 221.473 0 003.388-3.781l.753.656a222.23 222.23 0 006.534-7.817l-.783-.622a213.447 213.447 0 003.113-3.997l.797.603a220.423 220.423 0 005.978-8.248l-.823-.566a222.287 222.287 0 002.833-4.207l.837.546a222.182 222.182 0 005.393-8.638l-.861-.508c.86-1.451 1.705-2.915 2.535-4.392l.873.488a222.61 222.61 0 004.786-8.992l-.894-.447a227.52 227.52 0 002.222-4.546l.905.426a224.244 224.244 0 004.156-9.294l-.923-.385a226.453 226.453 0 001.913-4.702l.931.364a224.9 224.9 0 003.512-9.55l-.947-.321a219.872 219.872 0 001.594-4.834l.954.3a225.37 225.37 0 002.859-9.763l-.967-.256c.439-1.638.859-3.276 1.259-4.916l.973.234a223.482 223.482 0 002.187-9.936l-.982-.19c.325-1.658.631-3.315.917-4.973l.986.167a221.119 221.119 0 001.5-10.065l-.993-.122c.21-1.678.401-3.356.573-5.033l.996.099c.345-3.383.612-6.763.8-10.138l-.999-.053c.094-1.688.168-3.375.223-5.06l1 .03c.111-3.397.143-6.788.097-10.169l-1.001.016a217.774 217.774 0 00-.127-5.055l1-.039a219.327 219.327 0 00-.607-10.15l-.997.085a216.71 216.71 0 00-.478-5.044l.996-.108a221.459 221.459 0 00-1.307-10.082l-.99.154a214.489 214.489 0 00-.823-4.992l.986-.176a221.546 221.546 0 00-1.998-9.968l-.976.221c-.37-1.647-.758-3.289-1.165-4.925l.972-.243a222.347 222.347 0 00-2.677-9.805l-.96.286a224.947 224.947 0 00-1.498-4.833l.952-.308a222.669 222.669 0 00-3.341-9.6l-.937.351a226.306 226.306 0 00-1.825-4.718l.929-.372a223.593 223.593 0 00-3.987-9.349l-.912.414a217.025 217.025 0 00-2.143-4.584l.903-.435a224.487 224.487 0 00-4.615-9.055l-.882.474a221.9 221.9 0 00-2.449-4.428l.871-.494a224.118 224.118 0 00-5.22-8.721l-.848.533a224.324 224.324 0 00-2.744-4.25l.835-.552a224.663 224.663 0 00-5.801-8.346l-.809.589a220.006 220.006 0 00-3.029-4.054l.796-.608a223.003 223.003 0 00-6.356-7.932l-.768.643a222.26 222.26 0 00-3.297-3.838l.753-.66a223.847 223.847 0 00-6.884-7.481l-.723.693a215.327 215.327 0 00-3.551-3.603l.707-.71a223.906 223.906 0 00-7.38-6.993l-.673.741a220.64 220.64 0 00-3.795-3.356l.656-.756a222.601 222.601 0 00-7.843-6.472l-.621.785a224.025 224.025 0 00-4.008-3.083l.603-.799a223.795 223.795 0 00-8.269-5.919l-.566.825c-1.394-.95-2.8-1.885-4.218-2.806l.546-.838a222.952 222.952 0 00-8.655-5.339l-.508.862a220.27 220.27 0 00-4.399-2.51l.488-.873a223.627 223.627 0 00-9.006-4.739l-.448.895a227.424 227.424 0 00-4.553-2.201l.427-.905a226.82 226.82 0 00-9.305-4.115l-.386.923a221.206 221.206 0 00-4.709-1.895l.366-.931a227.208 227.208 0 00-9.559-3.479l-.324.946a227.666 227.666 0 00-4.838-1.58l.302-.953a226.742 226.742 0 00-9.772-2.834l-.259.965c-1.64-.436-3.28-.852-4.921-1.25l.238-.971a226.596 226.596 0 00-9.947-2.171l-.194.98a221.495 221.495 0 00-4.978-.911l.172-.985a224.627 224.627 0 00-10.077-1.494l-.126.992c-1.681-.21-3.36-.401-5.039-.572l.104-.994a223.224 223.224 0 00-10.152-.803l-.058.997a226.88 226.88 0 00-5.069-.227l.036-.998a223.468 223.468 0 00-10.187-.108l.01.999c-1.69.021-3.378.061-5.063.12l-.033-.999c-3.402.12-6.794.316-10.173.589l.078.996c-1.688.136-3.373.292-5.055.466l-.101-.994c-3.385.351-6.755.779-10.109 1.282l.147.988c-1.673.251-3.342.52-5.007.809l-.169-.985a225.538 225.538 0 00-10 1.967l.213.976c-1.652.364-3.3.746-4.942 1.147l-.235-.97a225.023 225.023 0 00-9.844 2.641l.279.959c-1.624.475-3.242.969-4.854 1.48l-.301-.952a226.693 226.693 0 00-9.643 3.302l.344.938a227.69 227.69 0 00-4.742 1.805l-.365-.929a224.912 224.912 0 00-9.398 3.947l.407.912c-1.545.69-3.082 1.397-4.61 2.122l-.428-.902a227.14 227.14 0 00-9.11 4.573l.468.882a228.323 228.323 0 00-4.455 2.429l-.488-.871a225.44 225.44 0 00-8.78 5.18l.527.848c-1.437.892-2.863 1.8-4.28 2.724l-.546-.835a224.24 224.24 0 00-8.408 5.762l.584.81a225.89 225.89 0 00-4.086 3.01l-.602-.797a224.393 224.393 0 00-7.996 6.32l.638.769a219.098 219.098 0 00-3.871 3.28l-.655-.753a222.762 222.762 0 00-7.546 6.851l.689.723a224.233 224.233 0 00-3.635 3.535l-.706-.707a223.82 223.82 0 00-7.057 7.351l.738.674a217.728 217.728 0 00-3.388 3.781l-.753-.657a222.265 222.265 0 00-6.534 7.818l.783.621a216.77 216.77 0 00-3.113 3.997l-.797-.603a221.286 221.286 0 00-5.978 8.249l.823.565a225.63 225.63 0 00-2.833 4.208l-.837-.546a222.182 222.182 0 00-5.393 8.638l.861.507a225.703 225.703 0 00-2.535 4.392l-.873-.487a221.939 221.939 0 00-4.786 8.992l.894.447a224.887 224.887 0 00-2.222 4.546l-.905-.426a224.98 224.98 0 00-4.156 9.294l.923.384a226.54 226.54 0 00-1.913 4.703l-.931-.364z" stroke="#D5D5D5" stroke-width="2" stroke-dasharray="5 10"/><path d="M945.62 196.664L367.637 948.793" stroke="#D5D5D5" stroke-width="2"/></svg>