<svg version="1.0" xmlns="http://www.w3.org/2000/svg" width="1706.667" height="1670.667" viewBox="0 0 1280 1253"><path d="M1205.5 1c-1.6.4-6.5 1.3-10.9 1.9-21.8 3.4-53.4 16.6-85.9 36-106.3 63.3-273.5 216.4-478.8 438.6-64.9 70.3-138.2 152.6-185.9 209-7.9 9.3-16.8 19.8-19.8 23.3l-5.4 6.3-18.5-9.7C176 589.8 65.1 561.7 19.4 610.2c-9.5 10-13.8 18.9-17.3 35.3-2.6 12.3-2.6 14.7-.1 22 3.4 9.9 6.3 13.5 23.2 29 37.5 34.3 95.1 93.6 127.9 131.5 80.6 93.4 160.2 212.1 258.4 385.4 7.2 12.6 14.7 24.8 16.8 27.2 4.6 5.2 10 8.5 18.1 11 5.6 1.7 6.1 1.7 12.4 0 8.8-2.3 12.9-4.6 17.9-9.8 5-5.2 6.5-8.1 14.1-27.3 8.8-22.1 26.6-64.8 38-91 132.4-305.2 294-564 487.7-781 44.9-50.3 108.5-115.2 183.5-187.2 61-58.5 73.1-73.4 78.5-97.1 1.8-8.1 1.8-8.6.1-15-6.1-23.3-20.7-35.2-50.6-41.3-9.8-1.9-17.3-2.3-22.5-.9z"/></svg>